<?xml version="1.0" encoding="UTF-8"?>
<svg version="1.1" xmlns="http://www.w3.org/2000/svg" width="2000" height="400">
<path d="M0 0 C17.50002199 13.95317241 23.60753211 42.03680952 31.22436523 62.19555664 C36.44581785 75.99892998 41.83388476 89.73045911 47.29296875 103.44140625 C53.26168614 118.44096388 59.13880142 133.46893205 64.85546875 148.56640625 C73.01537352 170.11187828 81.38984908 191.57088789 89.83416748 213.00634766 C90.72677075 215.27328382 91.61784501 217.54081336 92.50830078 219.80859375 C93.90961367 223.37611186 95.31871329 226.9405059 96.73046875 230.50390625 C97.11315918 231.47787354 97.49584961 232.45184082 97.89013672 233.45532227 C99.58293068 237.70062392 101.37251344 241.5489499 103.79296875 245.44140625 C103.79296875 246.10140625 103.79296875 246.76140625 103.79296875 247.44140625 C106.20344784 247.35265409 106.20344784 247.35265409 108.79296875 246.44140625 C110.54754047 244.12465328 110.54754047 244.12465328 111.80322266 241.14135742 C112.30815247 240.04914886 112.81308228 238.95694031 113.33331299 237.83163452 C115.55268133 232.67688127 117.64117726 227.4904686 119.62890625 222.2421875 C120.06511795 221.10573288 120.50132965 219.96927826 120.95075989 218.79838562 C122.11981804 215.75013591 123.28370695 212.69997605 124.44543076 209.64892578 C125.67021382 206.43665479 126.90222556 203.22716056 128.1340332 200.01757812 C128.63180323 198.72037245 129.12956019 197.42316175 129.62730408 196.12594604 C129.87330793 195.48482754 130.11931179 194.84370903 130.37277031 194.18316269 C131.11648556 192.24401771 131.85939915 190.30456746 132.60206604 188.36502075 C136.68407785 177.70641989 140.81905516 167.06921285 144.98046875 156.44140625 C146.25578149 153.18121351 147.53041412 149.92075536 148.8046875 146.66015625 C149.12268311 145.84653122 149.44067871 145.03290619 149.76831055 144.19462585 C153.55516857 134.49929924 157.31403826 124.79312245 161.07415771 115.08740234 C169.08375799 94.41301521 177.09589388 73.73960654 185.18678284 53.09686279 C186.57436288 49.55655217 187.95989886 46.01551769 189.3359375 42.47070312 C205.07879827 1.9490108 205.07879827 1.9490108 223.61328125 -6.375 C240.51287221 -12.66563398 260.71787609 -12.66830159 277.73046875 -6.4921875 C288.55719032 -1.49143043 294.31548596 5.45685505 298.79296875 16.44140625 C299.71042107 19.48149605 299.91741461 22.19820474 299.91601658 25.36893082 C299.91800763 26.36617935 299.91999868 27.36342789 299.92205006 28.39089608 C299.91913722 29.48427403 299.91622438 30.57765198 299.91322327 31.7041626 C299.9145049 33.44888245 299.9145049 33.44888245 299.91581243 35.22884917 C299.91717599 38.45787364 299.91404598 41.68685808 299.90903437 44.91587782 C299.9047197 48.39777596 299.90617702 51.8796722 299.90693665 55.36157227 C299.90746123 61.39437554 299.90432121 67.42716801 299.89869881 73.45996857 C299.89057502 82.18240672 299.88796768 90.90483964 299.88671082 99.62728116 C299.88452168 113.77854197 299.87786534 127.92979701 299.8684082 142.08105469 C299.85923051 155.82845023 299.85215142 169.5758442 299.84790039 183.32324219 C299.84750631 184.59412596 299.84750631 184.59412596 299.84710426 185.89068416 C299.84579923 190.14107785 299.84453552 194.39147155 299.84329236 198.64186525 C299.83292406 233.90838404 299.81448806 269.17489216 299.79296875 304.44140625 C280.32296875 304.44140625 260.85296875 304.44140625 240.79296875 304.44140625 C240.67128098 249.19515923 241.01298237 193.95985962 241.45501816 138.71618104 C241.55941661 125.65007425 241.65447761 112.58392347 241.74316406 99.5177002 C241.77370874 95.05533699 241.80782136 90.59303567 241.84667969 86.1307373 C241.88518585 81.69601879 241.91512676 77.26135498 241.9360199 72.82651901 C241.94466633 71.32035295 241.95671592 69.81420168 241.97254944 68.30809402 C241.99293383 66.32705181 241.99986572 64.34588412 242.00585938 62.36474609 C242.01315063 61.30154144 242.02044189 60.23833679 242.0279541 59.14291382 C241.79001428 56.40744022 241.20332491 54.77098904 239.79296875 52.44140625 C237.37451797 52.45969628 237.37451797 52.45969628 234.79296875 53.44140625 C233.04994842 56.14291773 233.04994842 56.14291773 231.82861328 59.59155273 C231.4541315 60.53370337 231.4541315 60.53370337 231.07208443 61.49488735 C230.29275359 63.47005915 229.54171401 65.4544674 228.79296875 67.44140625 C228.10554596 69.20461716 228.10554596 69.20461716 227.40423584 71.00344849 C225.98485744 74.6726412 224.59994371 78.3539512 223.22265625 82.0390625 C222.70341978 83.42088017 222.1838852 84.80258585 221.66407776 86.18418884 C220.56488039 89.10753437 219.46763821 92.03160261 218.37203979 94.95629883 C216.64064483 99.578195 214.90479002 104.19840822 213.16821289 108.81835938 C211.10709207 114.30245962 209.04687756 119.78689825 206.98799992 125.27184105 C202.08454602 138.33430119 197.15948237 151.38857044 192.23046875 164.44140625 C191.41679604 166.59682984 190.60315649 168.75226596 189.78955078 170.90771484 C188.2171114 175.07346226 186.64450713 179.23914737 185.07177734 183.40478516 C183.56381766 187.39907308 182.05633306 191.39353977 180.54931641 195.38818359 C176.66790883 205.67651027 172.78267634 215.96336258 168.889328 226.24717712 C166.75725316 231.88203494 164.63606025 237.52087621 162.5213623 243.16227722 C161.08540035 246.98915584 159.64330822 250.81370706 158.20007324 254.6378479 C157.52559084 256.42913515 156.85368507 258.22139527 156.18469238 260.01473999 C142.94353128 295.4961853 142.94353128 295.4961853 128.79296875 302.44140625 C122.32855894 304.95946461 116.04376482 304.81355397 109.21777344 304.81201172 C107.062336 304.81636712 104.90897994 304.85268703 102.75390625 304.890625 C91.65506291 304.98226285 82.86951381 303.27555757 74.59765625 295.40234375 C64.98236163 284.95455609 60.66069124 270.39298529 55.7734375 257.3125 C55.07475402 255.45495023 54.37607035 253.59740054 53.67737865 251.73985386 C52.9447644 249.79024297 52.21373477 247.84004515 51.48321533 245.88964844 C49.9534535 241.80542948 48.41922252 237.72289828 46.88427734 233.640625 C45.06946689 228.81331138 43.25554344 223.9856668 41.44295502 219.15751839 C37.62240563 208.98133548 33.7846502 198.81169652 29.94009399 188.64456177 C28.57499344 185.03435927 27.2107241 181.42384288 25.84642029 177.81333923 C24.83813404 175.1450564 23.82972282 172.47682083 22.82128906 169.80859375 C20.02301807 162.40433416 17.22586715 154.99965148 14.42871094 147.5949707 C13.01547845 143.85385488 11.60205917 140.11280971 10.18847656 136.37182617 C6.90670659 127.68641445 3.62610817 119.00056574 0.34967041 110.31314087 C-1.17682595 106.26587833 -2.70399034 102.21886799 -4.23120117 98.171875 C-4.95011984 96.26623828 -5.6687212 94.36048182 -6.38696289 92.45458984 C-8.33831449 87.27669998 -10.29574835 82.10120066 -12.26281738 76.92926025 C-12.90380853 75.24035009 -13.54231551 73.55049543 -14.17858887 71.85980225 C-15.11691913 69.36773563 -16.06341315 66.87890985 -17.01171875 64.390625 C-17.29016632 63.64561234 -17.56861389 62.90059967 -17.85549927 62.13301086 C-19.24178916 58.52119198 -20.55624933 55.30070194 -23.20703125 52.44140625 C-25.30118929 51.64516803 -25.30118929 51.64516803 -27.20703125 51.44140625 C-28.02436123 54.30722343 -28.33157624 56.84597444 -28.33007908 59.82232285 C-28.33207013 60.69765254 -28.33406118 61.57298223 -28.33611256 62.47483706 C-28.33319972 63.43203182 -28.33028688 64.38922658 -28.32728577 65.37542725 C-28.32814019 66.39564948 -28.32899462 67.41587172 -28.32987493 68.46700978 C-28.33152592 71.89566745 -28.32601455 75.32427651 -28.32055664 78.75292969 C-28.32027466 81.20669046 -28.32043271 83.66045131 -28.32099915 86.11421204 C-28.32122708 91.40218484 -28.31838522 96.69014243 -28.31276131 101.97811127 C-28.30463535 109.62363136 -28.30202996 117.26914548 -28.30077332 124.91466942 C-28.29858452 137.31893013 -28.2919291 149.72318427 -28.2824707 162.12744141 C-28.27329213 174.17724576 -28.26621347 186.22704833 -28.26196289 198.27685547 C-28.26170017 199.01956647 -28.26143744 199.76227748 -28.26116676 200.52749488 C-28.25986172 204.25344607 -28.25859802 207.97939728 -28.25735486 211.70534849 C-28.24698762 242.61737349 -28.22855219 273.52938643 -28.20703125 304.44140625 C-47.67703125 304.44140625 -67.14703125 304.44140625 -87.20703125 304.44140625 C-87.29528363 268.73754751 -87.36911308 233.03379199 -87.41129257 197.32985531 C-87.41629514 193.11060973 -87.42147245 188.89136438 -87.42675781 184.67211914 C-87.42780705 183.83217581 -87.4288563 182.99223248 -87.42993733 182.12683632 C-87.44732238 168.54294396 -87.47884955 154.95911961 -87.51564243 141.37526754 C-87.55310482 127.42746595 -87.57527828 113.47969987 -87.58338523 99.53185004 C-87.58886204 90.9316182 -87.60613329 82.33157862 -87.63869712 73.731406 C-87.65991049 67.82659718 -87.66621593 61.92188715 -87.66103676 56.01704303 C-87.65848547 52.6148038 -87.6644944 49.21316831 -87.68385315 45.8109436 C-87.70387029 42.11054087 -87.69892681 38.41094855 -87.68804932 34.71052551 C-87.69970068 33.65114503 -87.71135205 32.59176455 -87.72335649 31.50028163 C-87.63985656 20.92988073 -85.28398166 10.52141668 -78.23828125 2.37109375 C-58.59710978 -16.28801915 -21.0334689 -14.85372406 0 0 Z " fill="#FFFFFF" transform="translate(1700.20703125,95.55859375)"/>
<path d="M0 0 C1.34731453 -0.01441132 1.34731453 -0.01441132 2.72184753 -0.02911377 C3.69575943 -0.03336365 4.66967133 -0.03761353 5.6730957 -0.04199219 C6.67468216 -0.04769226 7.67626862 -0.05339233 8.70820618 -0.05926514 C10.83247824 -0.06872475 12.95676505 -0.07525292 15.08105469 -0.07910156 C18.31837961 -0.08877605 21.55506134 -0.11977777 24.79223633 -0.15136719 C26.85668569 -0.15790035 28.92113958 -0.16314959 30.9855957 -0.16699219 C31.94938644 -0.17933899 32.91317719 -0.19168579 33.90617371 -0.20440674 C40.9102692 -0.1814082 45.82402295 0.70915077 51.27856445 5.42285156 C53.95685167 8.50068654 56.40455995 11.66383515 58.78637695 14.97363281 C59.5002356 15.95650269 59.5002356 15.95650269 60.22851562 16.95922852 C64.4939824 22.86293776 68.6173594 28.86119117 72.72387695 34.87597656 C75.93879185 39.57899409 79.20367501 44.24645206 82.47387695 48.91113281 C83.06273682 49.75119873 83.65159668 50.59126465 84.25830078 51.45678711 C85.45970278 53.1702086 86.66128245 54.88350553 87.86303711 56.59667969 C90.21719834 59.95374045 92.56847802 63.31281298 94.91943359 66.67211914 C96.07855787 68.32835909 97.23789952 69.98444693 98.39746094 71.64038086 C101.39222972 75.91724171 104.38434219 80.19592663 107.37231445 84.47753906 C108.59357539 86.22630209 109.814928 87.9750011 111.03637695 89.72363281 C111.61919434 90.55878418 112.20201172 91.39393555 112.80249023 92.25439453 C116.5825406 97.65833805 120.43312829 102.99646826 124.40356445 108.26269531 C125.66137695 110.16113281 125.66137695 110.16113281 125.66137695 112.16113281 C130.07496651 108.08767309 133.27849924 103.58506938 136.59887695 98.59863281 C137.75413385 96.88702459 138.91041748 95.17610901 140.06762695 93.46582031 C140.6605957 92.58764648 141.25356445 91.70947266 141.86450195 90.8046875 C144.73471517 86.58204229 147.66457524 82.40189049 150.59887695 78.22363281 C151.17951904 77.39597412 151.76016113 76.56831543 152.35839844 75.71557617 C153.53704262 74.03591461 154.71599779 72.35647123 155.89526367 70.67724609 C158.82159559 66.5082142 161.74115795 62.33444761 164.66137695 58.16113281 C165.82801085 56.4944432 166.99467752 54.82777654 168.16137695 53.16113281 C168.73887695 52.33613281 169.31637695 51.51113281 169.91137695 50.66113281 C171.66137695 48.16113281 173.41137695 45.66113281 175.16137695 43.16113281 C175.73944092 42.33500488 176.31750488 41.50887695 176.91308594 40.65771484 C178.07283151 39.00158326 179.23378994 37.34630031 180.39599609 35.69189453 C183.42936966 31.37043439 186.43639016 27.03351424 189.4074707 22.66894531 C190.33462891 21.31736328 190.33462891 21.31736328 191.28051758 19.93847656 C192.45512308 18.22514222 193.62234261 16.50671008 194.78051758 14.78222656 C199.19544633 8.36918479 203.93946333 2.42087618 211.66137695 0.16113281 C215.12002554 -0.13866359 218.56633801 -0.14292678 222.03637695 -0.13964844 C223.53950439 -0.14607613 223.53950439 -0.14607613 225.07299805 -0.15263367 C227.18773647 -0.15836637 229.3024946 -0.15888505 231.41723633 -0.15454102 C234.65000017 -0.15137832 237.88185098 -0.17486337 241.11450195 -0.20019531 C243.17179247 -0.20246815 245.22908544 -0.20317187 247.28637695 -0.20214844 C248.73343018 -0.21596306 248.73343018 -0.21596306 250.2097168 -0.23005676 C256.3362711 -0.18786371 259.87875392 0.57041482 264.47387695 4.84863281 C266.26465396 8.33593541 266.48844005 11.39759707 265.66137695 15.16113281 C264.51806641 17.2434082 264.51806641 17.2434082 263.0246582 19.38378906 C262.47898193 20.17052002 261.93330566 20.95725098 261.37109375 21.76782227 C260.80688721 22.55761475 260.24268066 23.34740723 259.66137695 24.16113281 C259.1506665 24.8768042 258.63995605 25.59247559 258.11376953 26.32983398 C256.51971592 28.53509748 254.90665608 30.72507177 253.28637695 32.91113281 C252.68696289 33.72259766 252.08754883 34.5340625 251.4699707 35.37011719 C246.25729239 42.40454596 240.94844269 49.36393803 235.62915039 56.31787109 C228.85875465 65.1821531 222.25075793 74.16192108 215.66137695 83.16113281 C207.75650305 93.95693202 199.7699854 104.67873618 191.63818359 115.30493164 C186.51256317 122.01407707 181.46662893 128.77781391 176.49121094 135.59912109 C173.96615164 139.05795505 171.42745302 142.49004713 168.75512695 145.83691406 C168.32256592 146.38532959 167.89000488 146.93374512 167.44433594 147.4987793 C166.32112008 148.91364031 165.18144641 150.31539463 164.0402832 151.71582031 C162.42289198 154.04178308 162.42289198 154.04178308 162.88110352 156.53808594 C163.75125449 159.46327433 164.88529831 161.1817428 166.7668457 163.57519531 C167.41331055 164.40857422 168.05977539 165.24195313 168.72583008 166.10058594 C169.42643555 166.98681641 170.12704102 167.87304688 170.84887695 168.78613281 C172.32287569 170.68352816 173.79550675 172.58198669 175.2668457 174.48144531 C176.37938721 175.91278809 176.37938721 175.91278809 177.5144043 177.37304688 C180.63095149 181.42023461 183.65022225 185.5352697 186.66137695 189.66113281 C191.58575904 196.38701508 196.59506198 203.04155241 201.66137695 209.66113281 C209.70268325 220.1725308 217.55198169 230.81744443 225.37036133 241.49511719 C232.05202403 250.61478681 238.7929612 259.68100942 245.66137695 268.66113281 C250.98847987 275.63481837 256.29641395 282.6216418 261.53637695 289.66113281 C262.12547852 290.44423828 262.71458008 291.22734375 263.3215332 292.03417969 C269.74880026 300.71328021 269.74880026 300.71328021 269.53637695 306.66113281 C268.501735 310.79970061 267.90105573 312.35716753 264.66137695 315.16113281 C260.74460839 315.92244934 256.86690702 315.83714744 252.88793945 315.79003906 C251.15318863 315.793657 251.15318863 315.793657 249.38339233 315.79734802 C246.93728203 315.79636863 244.49114981 315.78295338 242.04516602 315.75805664 C238.30709142 315.72382252 234.5713899 315.73737673 230.83325195 315.75683594 C228.45563774 315.74993551 226.07802964 315.74026135 223.70043945 315.72753906 C222.58464508 315.73249893 221.46885071 315.7374588 220.31924438 315.74256897 C214.12584827 315.64895693 210.35754217 315.3325199 205.66137695 311.16113281 C203.3449707 308.59472656 203.3449707 308.59472656 201.09887695 305.59863281 C200.68105957 305.04272461 200.26324219 304.48681641 199.83276367 303.9140625 C195.00473333 297.41215069 190.48883534 290.68800073 185.9465332 283.98535156 C182.92240427 279.52860035 179.83886164 275.11722576 176.72387695 270.72363281 C172.34877197 264.55059912 167.99611736 258.36259005 163.66137695 252.16113281 C158.33218961 244.54030013 152.98325601 236.93382383 147.61450195 229.34082031 C145.55809065 226.43238852 143.5066526 223.52052435 141.45825195 220.60644531 C140.92731934 219.85194092 140.39638672 219.09743652 139.84936523 218.32006836 C138.84678176 216.89512193 137.84507543 215.46955772 136.84448242 214.04321289 C133.53823562 209.34787921 130.12980911 204.73785286 126.66137695 200.16113281 C119.91099717 209.42693089 113.22079141 218.72322118 106.75561523 228.19067383 C101.97011527 235.19264317 97.07141457 242.11302238 92.16870117 249.03320312 C89.70499814 252.51127822 87.24516417 255.99208131 84.78637695 259.47363281 C84.29661377 260.16706787 83.80685059 260.86050293 83.30224609 261.57495117 C79.40765796 267.09370298 75.53284545 272.62614684 71.66137695 278.16113281 C70.48300409 279.84343327 69.30461875 281.52572499 68.1262207 283.20800781 C65.86112683 286.44258972 63.60416223 289.68261823 61.3527832 292.92675781 C48.65362661 311.16629971 48.65362661 311.16629971 42.66137695 315.16113281 C40.31544495 315.42855835 40.31544495 315.42855835 37.51904297 315.45166016 C36.47108047 315.46441986 35.42311798 315.47717957 34.34339905 315.49032593 C32.6464817 315.4936644 32.6464817 315.4936644 30.9152832 315.49707031 C29.75262436 315.50372711 28.58996552 315.51038391 27.39207458 315.51724243 C24.93164657 315.52737389 22.47119104 315.5320593 20.01074219 315.53173828 C16.24213512 315.53611162 12.47469861 315.5724287 8.70629883 315.61035156 C6.31763097 315.61621947 3.92895753 315.62018904 1.5402832 315.62207031 C0.41102921 315.63644135 -0.71822479 315.65081238 -1.88169861 315.6656189 C-3.45837059 315.65638901 -3.45837059 315.65638901 -5.06689453 315.64697266 C-5.99050278 315.64982269 -6.91411102 315.65267273 -7.8657074 315.65560913 C-11.09364589 315.01016085 -12.27025904 313.66108967 -14.33862305 311.16113281 C-16.11236611 307.61364669 -15.96707591 304.02642299 -15.33862305 300.16113281 C-13.75512373 296.90356504 -11.60895881 294.22006951 -9.33862305 291.41113281 C-8.39889648 290.19393555 -8.39889648 290.19393555 -7.44018555 288.95214844 C-6.10515717 287.22531826 -4.76115046 285.50539759 -3.40893555 283.79199219 C-0.68004515 280.32424184 1.98862018 276.81244041 4.65771484 273.29858398 C6.00051446 271.53103625 7.34608655 269.76559154 8.69433594 268.00219727 C13.68536374 261.47361769 18.58301301 254.8816291 23.44262695 248.25488281 C28.26698247 241.68019422 33.15642485 235.15613348 38.05834961 228.63916016 C42.27490995 223.02689326 46.44767685 217.38436022 50.59887695 211.72363281 C56.20040227 204.08980806 61.91815342 196.55052839 67.67382812 189.0324707 C72.91278726 182.176809 78.05455621 175.25408011 83.14575195 168.28808594 C85.90862257 164.51238415 88.69908583 160.78490641 91.66137695 157.16113281 C90.06646867 151.94700958 86.76864826 148.21662917 83.41137695 144.03613281 C78.33585531 137.61767159 73.36905803 131.13953633 68.53637695 124.53613281 C64.27651199 118.71982411 59.99848922 112.92011888 55.66137695 107.16113281 C51.37043786 101.46149452 47.13113692 95.72613071 42.91137695 89.97363281 C37.89982015 83.14677877 32.80789071 76.3867609 27.66137695 69.66113281 C20.80836601 60.70285717 14.08677465 51.65629831 7.4230957 42.55664062 C5.56445584 40.02934374 3.69251906 37.51233049 1.81762695 34.99707031 C1.1848584 34.14580566 0.55208984 33.29454102 -0.09985352 32.41748047 C-1.3042874 30.79778983 -2.51145767 29.18012883 -3.72192383 27.56494141 C-11.99106551 16.41830424 -11.99106551 16.41830424 -12.6862793 11.90332031 C-11.92072384 6.89050516 -10.42008794 4.44621431 -6.33862305 1.16113281 C-4.00307425 -0.00664159 -2.60241802 0.02244648 0 0 Z " fill="#FFFFFF" transform="translate(1205.338623046875,84.8388671875)"/>
<path d="M0 0 C1.03217368 0.14223464 2.06434736 0.28446928 3.12779903 0.43101406 C4.16495362 3.23743236 4.56529481 4.52982134 4.12779903 7.43101406 C2.63757992 9.53327847 2.63757992 9.53327847 0.48546505 11.82115078 C-0.75407429 13.1427319 -0.75407429 13.1427319 -2.01865482 14.49101162 C-2.96748611 15.4732886 -3.91878098 16.45319035 -4.87220097 17.43101406 C-5.37269585 17.94459721 -5.87319073 18.45818035 -6.38885212 18.98732662 C-10.44458782 23.13008433 -14.54925212 27.22311401 -18.65735722 31.31382656 C-19.96750867 32.62210846 -21.27743621 33.93061464 -22.58715153 35.23933315 C-26.00266041 38.65105916 -29.42116349 42.05976905 -32.84034061 45.46781826 C-36.34173846 48.95891007 -39.84023866 52.45290314 -43.33899784 55.94663906 C-50.1805969 62.77757558 -57.0253688 69.60532312 -63.87220097 76.43101406 C-62.79891293 76.43315159 -62.79891293 76.43315159 -61.7039423 76.4353323 C-54.95048006 76.45318487 -48.19763032 76.49486419 -41.44447899 76.56310463 C-37.97278921 76.59735102 -34.50153833 76.62248074 -31.02967167 76.6265707 C-27.03524629 76.63168 -23.04213391 76.67680872 -19.04798222 76.72398281 C-17.80510944 76.72005016 -16.56223667 76.71611752 -15.28170109 76.7120657 C-6.69969847 76.85728739 -6.69969847 76.85728739 -2.59388065 79.70396328 C-0.38944888 83.19566818 -0.04978853 85.09168669 -0.28968143 89.12974453 C-1.37974702 93.43609752 -4.29374026 96.00703331 -7.43470097 98.99351406 C-8.7360875 100.30541391 -10.03687669 101.6179066 -11.33704472 102.93101406 C-12.2687952 103.84947109 -12.2687952 103.84947109 -13.21936893 104.78648281 C-15.06344381 106.62129646 -16.8012408 108.52126966 -18.49720097 110.49351406 C-19.0115369 111.08906094 -19.52587284 111.68460781 -20.05579472 112.29820156 C-21.08015817 113.50100252 -22.10409909 114.70416459 -23.1265955 115.90855312 C-29.19260693 123.05123418 -35.32956922 130.09170165 -41.71595097 136.95054531 C-44.93189536 140.4047078 -48.07738051 143.90536999 -51.16516972 147.47398281 C-53.20853527 149.81660556 -55.28900956 152.12374828 -57.37220097 154.43101406 C-60.06203527 157.41164127 -62.73530461 160.40346639 -65.37220097 163.43101406 C-68.7647319 167.32614217 -72.22414297 171.15884169 -75.68470097 174.99351406 C-77.59774246 177.12518887 -79.49107709 179.27120516 -81.37220097 181.43101406 C-84.7647319 185.32614217 -88.22414297 189.15884169 -91.68470097 192.99351406 C-93.59774246 195.12518887 -95.49107709 197.27120516 -97.37220097 199.43101406 C-100.00909733 202.45856173 -102.68236666 205.45038686 -105.37220097 208.43101406 C-108.64209041 212.05560338 -111.90719438 215.68149797 -115.06511688 219.40448666 C-116.87220097 221.43101406 -116.87220097 221.43101406 -118.70187569 223.09505367 C-122.73105911 226.96254582 -124.3445958 229.86902364 -124.75194645 235.4802084 C-124.78975183 237.86650668 -124.789506 240.25359985 -124.75867558 242.63999844 C-124.76945133 243.9481451 -124.78022709 245.25629177 -124.79132938 246.60407925 C-124.81992249 250.17004826 -124.8058881 253.73469643 -124.78388762 257.30066395 C-124.76820053 261.03501051 -124.7921462 264.76910404 -124.81179142 268.50340176 C-124.84296955 275.5652314 -124.83878098 282.62657421 -124.82171685 289.68843412 C-124.80401492 297.73209654 -124.82599694 305.77549975 -124.85122383 313.81912422 C-124.90220497 330.35653118 -124.90363883 346.89355398 -124.87220097 363.43101406 C-123.59788212 363.58682446 -122.32356327 363.74263485 -121.0106287 363.90316677 C-108.67125583 365.41189636 -88.98252859 370.37191513 -80.87220097 380.43101406 C-79.6014331 383.26580391 -79.88738846 384.48942749 -80.68470097 387.55601406 C-81.87220097 390.43101406 -81.87220097 390.43101406 -83.87220097 392.43101406 C-86.32758331 392.68548965 -86.32758331 392.68548965 -89.48339176 392.69171047 C-90.67661549 392.69879528 -91.86983921 392.70588009 -93.09922123 392.71317959 C-94.41512241 392.71070217 -95.7310236 392.70822475 -97.08680058 392.70567226 C-98.4812278 392.71001761 -99.87565263 392.71520016 -101.27007389 392.72115993 C-105.06345112 392.7345807 -108.85672891 392.73512519 -112.65012527 392.73259664 C-115.81377391 392.73152896 -118.97740227 392.73640508 -122.14104658 392.74120206 C-129.60312316 392.75230797 -137.06514941 392.75272863 -144.52723026 392.74668789 C-152.23214054 392.74064659 -159.93686828 392.75296052 -167.64174742 392.77425796 C-174.25070899 392.7918562 -180.85961237 392.79787812 -187.46859652 392.79462022 C-191.41855488 392.7928043 -195.36838306 392.79547404 -199.31832027 392.80933475 C-203.03246332 392.82187964 -206.74632122 392.82000101 -210.46045971 392.80692387 C-212.47686469 392.80341779 -214.49327823 392.8147607 -216.50965214 392.82649136 C-217.70569569 392.81947704 -218.90173923 392.81246273 -220.13402653 392.80523586 C-221.17582034 392.8054036 -222.21761415 392.80557135 -223.29097748 392.80574417 C-225.87220097 392.43101406 -225.87220097 392.43101406 -227.66833687 391.11465645 C-229.72971661 388.23175105 -229.87220097 385.93183904 -229.87220097 382.43101406 C-226.59663015 377.65980525 -223.381748 375.17173895 -217.99720097 372.99351406 C-217.35943729 372.72905483 -216.72167362 372.4645956 -216.06458378 372.19212246 C-209.74902023 369.6583576 -203.32048632 367.65024847 -196.80188847 365.70835781 C-195.21815434 365.23166653 -195.21815434 365.23166653 -193.60242558 364.74534512 C-191.02666166 363.97057515 -188.44993299 363.19920532 -185.87220097 362.43101406 C-185.70855716 345.21098143 -185.58518079 327.99119201 -185.50951576 310.77055931 C-185.47344658 302.77438177 -185.42428693 294.77868781 -185.34412479 286.7828207 C-185.27427479 279.81221599 -185.22917482 272.84196154 -185.2135815 265.87101656 C-185.20446844 262.18096392 -185.1831091 258.49191316 -185.13209057 254.8021822 C-185.07554616 250.67923145 -185.07427669 246.55801353 -185.07752323 242.43467617 C-185.0523563 241.21619488 -185.02718937 239.99771358 -185.0012598 238.74230862 C-185.04987695 233.03967716 -185.16561971 229.41506575 -189.30321598 225.24841213 C-190.47580076 224.28804241 -191.66341216 223.34539621 -192.87220097 222.43101406 C-194.01576447 221.17685902 -195.14553116 219.90962444 -196.24720097 218.61851406 C-200.38486972 213.8250987 -204.62843452 209.13048697 -208.87220097 204.43101406 C-217.44080304 194.94229365 -217.44080304 194.94229365 -221.30970097 190.49351406 C-224.96278053 186.29798185 -228.71725645 182.19727853 -232.46595097 178.08726406 C-235.02368867 175.26378737 -237.52990066 172.40045404 -240.02845097 169.52476406 C-242.28096553 166.96682379 -244.57537188 164.44922426 -246.87220097 161.93101406 C-250.30484857 158.16750885 -253.68775106 154.36972055 -257.02845097 150.52476406 C-259.28096553 147.96682379 -261.57537188 145.44922426 -263.87220097 142.93101406 C-267.30484857 139.16750885 -270.68775106 135.36972055 -274.02845097 131.52476406 C-276.28096553 128.96682379 -278.57537188 126.44922426 -280.87220097 123.93101406 C-284.32492811 120.14499199 -287.73430749 116.32958107 -291.09095097 112.45835781 C-293.17450676 110.08694234 -295.30599091 107.76195157 -297.43470097 105.43101406 C-307.62772731 94.03367467 -307.62772731 94.03367467 -308.43470097 88.74351406 C-307.66230311 84.1949489 -306.42223324 81.65553584 -302.78653908 78.78334618 C-298.91544483 76.9870532 -295.57880584 77.24586231 -291.43029118 77.54370022 C-290.58126053 77.59067639 -289.73222989 77.63765257 -288.85747105 77.68605226 C-286.99672444 77.7901855 -285.13636595 77.90143578 -283.2764101 78.01884937 C-278.09046577 78.34433338 -272.9014548 78.61286901 -267.71263981 78.88806057 C-266.60323626 78.94814017 -265.49383272 79.00821978 -264.35081089 79.07011998 C-248.6929522 79.89914368 -233.01894053 80.3014478 -217.3459549 80.73119354 C-204.65334974 81.0912597 -191.99580254 81.58928509 -179.32508183 82.42686367 C-164.63273585 83.37807115 -149.96789393 83.94960381 -135.24329472 83.96617031 C-134.04578319 83.96775914 -132.84827167 83.96934796 -131.61447191 83.97098494 C-94.96281294 83.78681875 -71.29939098 74.93015118 -45.21694279 48.88351345 C-33.89226662 37.20336044 -23.18445632 24.83599309 -13.33177471 11.88795948 C-12.73648671 11.11594918 -12.1411987 10.34393888 -11.52787167 9.54853433 C-10.42949867 8.11373575 -9.34997914 6.6642145 -8.29408258 5.19787461 C-4.72113563 0.52550884 -4.72113563 0.52550884 0 0 Z M-248.87220097 95.43101406 C-245.72564096 101.04632547 -245.72564096 101.04632547 -242.13001347 106.16538906 C-241.37796635 107.13484463 -241.37796635 107.13484463 -240.61072636 108.12388515 C-240.07826298 108.80273769 -239.5457996 109.48159023 -238.99720097 110.18101406 C-234.23216654 116.33429753 -229.54077917 122.53277668 -224.93470097 128.80601406 C-224.35703983 129.59218105 -223.7793787 130.37834805 -223.18421268 131.18833828 C-221.41237598 133.60171054 -219.64210837 136.01622663 -217.87220097 138.43101406 C-193.92737226 175.69372324 -193.92737226 175.69372324 -159.87220097 201.43101406 C-151.00381156 202.30495874 -145.27294972 201.03795687 -138.40345097 195.40757656 C-135.83050908 193.13687785 -133.33566179 190.82016235 -130.87220097 188.43101406 C-130.32724979 187.91015224 -129.78229862 187.38929043 -129.22083378 186.85264492 C-124.97271074 182.71966776 -121.296756 178.35871076 -117.74720097 173.61851406 C-117.19008427 172.88278164 -116.63296757 172.14704922 -116.05896854 171.38902187 C-111.60313899 165.47629821 -107.27453909 159.47479965 -102.96619511 153.45420742 C-98.64864478 147.44423416 -94.18754983 141.55305784 -89.68470097 135.68101406 C-84.41474626 128.80645758 -79.25612861 121.88246078 -74.26673222 114.80210781 C-71.01292843 110.1915162 -67.6427769 105.66499755 -64.27332401 101.13853359 C-61.93192875 98.53196475 -61.93192875 98.53196475 -60.87220097 95.43101406 C-69.65557353 93.78481009 -79.01317946 92.58554564 -87.00647831 97.26646328 C-90.14355445 99.6946299 -92.94354834 102.25040273 -95.74720097 105.05601406 C-96.64978642 105.93861904 -97.55237186 106.82122402 -98.48230839 107.73057461 C-104.2272754 114.0081357 -105.87123815 118.72303608 -105.74842167 127.22520351 C-105.94693054 132.3664658 -108.14800291 136.17343507 -110.87220097 140.43101406 C-111.42907597 141.31788906 -111.98595097 142.20476406 -112.55970097 143.11851406 C-117.71009834 148.26891144 -123.72486708 152.69916008 -130.87220097 154.43101406 C-132.83609585 154.17950709 -134.79489563 153.88562405 -136.74720097 153.55601406 C-141.92798621 153.37736629 -144.40550618 154.55780792 -148.09876347 157.98570156 C-150.27951136 160.17733093 -152.36121143 162.41851838 -154.40296268 164.74009609 C-155.04249882 165.46309902 -155.68203495 166.18610195 -156.34095097 166.93101406 C-156.90233768 167.60132656 -157.4637244 168.27163906 -158.04212284 168.96226406 C-159.87220097 170.43101406 -159.87220097 170.43101406 -162.53040409 170.71226406 C-164.87220097 170.43101406 -164.87220097 170.43101406 -165.87220097 169.43101406 C-166.40345097 166.80601406 -166.40345097 166.80601406 -165.87220097 163.43101406 C-163.64815213 160.79419162 -160.98991259 158.66764024 -158.37220097 156.43101406 C-152.79379447 151.39556953 -152.79379447 151.39556953 -149.98157597 144.62242031 C-150.11464149 141.18859063 -150.47921406 137.84265866 -150.87220097 134.43101406 C-149.7109636 126.96413295 -144.37208863 120.41793118 -138.76673222 115.63413906 C-133.64705012 111.97333983 -128.15662838 109.27736884 -121.87220097 108.43101406 C-120.25998435 108.76973709 -118.65515722 109.1455326 -117.05970097 109.55601406 C-114.17586263 110.03435407 -112.58132921 109.92961669 -110.16663456 108.23179531 C-106.03980883 104.63262563 -102.38363194 100.62491751 -98.87220097 96.43101406 C-98.87220097 96.10101406 -98.87220097 95.77101406 -98.87220097 95.43101406 C-148.37220097 95.43101406 -197.87220097 95.43101406 -248.87220097 95.43101406 Z " fill="#FFFFFF" transform="translate(1080.8722009658813,7.568985939025879)"/>
<path d="M0 0 C0.86454803 -0.00960754 1.72909607 -0.01921509 2.61984253 -0.02911377 C3.55111969 -0.03336365 4.48239685 -0.03761353 5.44189453 -0.04199219 C6.88267868 -0.0505423 6.88267868 -0.0505423 8.35256958 -0.05926514 C10.38510029 -0.06871176 12.4176463 -0.07524778 14.45019531 -0.07910156 C17.5557736 -0.08880801 20.66069029 -0.11983505 23.76611328 -0.15136719 C25.74136977 -0.15789736 27.71663099 -0.16314777 29.69189453 -0.16699219 C30.61912323 -0.17933899 31.54635193 -0.19168579 32.50167847 -0.20440674 C37.36964538 -0.18763093 40.79688785 -0.09264611 44.69970703 3.16113281 C46.73978961 6.22125667 46.95015898 6.81799546 46.95583344 10.25889206 C46.96206553 11.09656325 46.96829762 11.93423444 46.97471857 12.79728961 C46.96977011 14.17776095 46.96977011 14.17776095 46.96472168 15.58612061 C46.97129359 17.05263593 46.97129359 17.05263593 46.97799826 18.54877782 C46.99036494 21.83985614 46.98850696 25.13077606 46.98681641 28.421875 C46.99283773 30.77546425 46.99976123 33.12905134 47.00752258 35.4826355 C47.02243681 40.55889266 47.03116714 45.63511031 47.03523254 50.71138763 C47.04136679 58.05847579 47.05956311 65.40549592 47.08167309 72.75255075 C47.11740901 84.68235233 47.14571365 96.61215815 47.16796875 108.54199219 C47.16930374 109.25620706 47.17063873 109.97042192 47.17201418 110.70627967 C47.18143955 115.7745637 47.19060146 120.8428482 47.19970703 125.91113281 C47.21009963 131.69368525 47.22061834 137.47623742 47.23144531 143.25878906 C47.23344143 144.32698848 47.23344143 144.32698848 47.23547786 145.41676769 C47.25791903 157.29673832 47.28812151 169.17667715 47.32383776 181.05661511 C47.34741445 189.03538275 47.36093077 197.01409564 47.36733246 204.99289656 C47.37326915 209.95792587 47.38736434 214.92290773 47.40367699 219.88791275 C47.40955539 222.19092569 47.41202471 224.49395023 47.41083717 226.79697037 C47.40967822 229.94081807 47.42069335 233.084399 47.43469238 236.22821045 C47.42974392 237.59529746 47.42974392 237.59529746 47.42469549 238.99000239 C47.46187752 244.04996403 47.59619929 248.50921019 49.69970703 253.16113281 C54.28781545 255.68621625 59.23849507 255.44032737 64.35327148 255.40596008 C65.64093021 255.40935694 65.64093021 255.40935694 66.95460224 255.41282243 C69.82414013 255.41810929 72.69346119 255.40929464 75.56298828 255.40063477 C77.6230781 255.40174789 79.68316759 255.40380608 81.74325562 255.40673828 C86.17613491 255.41145805 90.60896123 255.41034296 95.0418396 255.40496254 C102.05063702 255.39735483 109.05933228 255.40800548 116.06811523 255.42216492 C135.9970744 255.45991211 155.92598716 255.47808244 175.85498047 255.46655273 C186.86414797 255.46034042 197.87315057 255.47189466 208.88227749 255.50299805 C215.85040248 255.52167342 222.81806118 255.51831393 229.78617859 255.49883044 C234.11972563 255.49195564 238.45301897 255.50589201 242.7865181 255.52577972 C244.79647153 255.5308328 246.80646739 255.52732722 248.81638718 255.51464653 C251.56026596 255.49856519 254.30234506 255.51315802 257.04614258 255.53535461 C257.84167195 255.52331712 258.63720133 255.51127962 259.45683765 255.49887735 C263.46962587 255.56508409 265.98136673 255.9847308 269.17805481 258.51274395 C272.33013191 261.82324244 272.81952495 264.04882139 272.87670898 268.44555664 C272.88954422 269.30687698 272.90237946 270.16819733 272.91560364 271.05561829 C272.92668404 272.44782845 272.92668404 272.44782845 272.93798828 273.86816406 C272.94606003 274.82631516 272.95413177 275.78446625 272.96244812 276.77165222 C272.97627896 278.79997961 272.98700559 280.82833017 272.99487305 282.85668945 C273.01208372 285.95145982 273.05597872 289.04516118 273.10009766 292.13964844 C273.11022516 294.1116458 273.11874108 296.08365223 273.12548828 298.05566406 C273.14299637 298.97773148 273.16050446 299.89979889 273.17854309 300.84980774 C273.15763997 307.07148964 272.20277369 310.65806616 267.69970703 315.16113281 C266.23456632 315.26320975 264.76453238 315.29587126 263.29584885 315.30094051 C262.33900751 315.30663176 261.38216617 315.312323 260.39632964 315.3181867 C259.3326423 315.31936658 258.26895496 315.32054645 257.17303467 315.32176208 C256.05273117 315.3268499 254.93242768 315.33193772 253.77817559 315.33717972 C249.99258061 315.35298139 246.20700482 315.3614495 242.42138672 315.36987305 C240.40774344 315.37658699 238.39410425 315.38408999 236.38046423 315.39171337 C227.56256758 315.42508248 218.74465917 315.44656766 209.92672002 315.46491322 C207.63148903 315.46970588 205.33625851 315.47468948 203.04102802 315.47971845 C188.79735935 315.51068845 174.55368667 315.53738282 160.30999374 315.55413723 C157.00874576 315.55808694 153.70749784 315.5620899 150.40625 315.56616211 C149.58570799 315.56717047 148.76516598 315.56817883 147.91975906 315.56921775 C134.62469652 315.586228 121.32982 315.62733885 108.0348483 315.6781851 C94.39441335 315.72992464 80.75407412 315.7590747 67.11354184 315.76633412 C59.45111766 315.77100119 51.78899803 315.78580217 44.12667084 315.82607841 C37.60135839 315.8603357 31.07640538 315.8743355 24.55100814 315.86165427 C21.22038119 315.85581657 17.89113161 315.8630191 14.56051445 315.88982391 C10.95114413 315.91732529 7.34369702 315.90807481 3.73431396 315.88938904 C2.67954951 315.90618397 1.62478506 315.9229789 0.53805804 315.94028276 C-4.17192655 315.87910921 -6.56805682 315.69261773 -10.45027351 312.87475681 C-13.54039543 308.13681341 -12.98787858 302.46170963 -12.93521118 297.01489258 C-12.94301113 295.78076661 -12.95081109 294.54664064 -12.9588474 293.27511692 C-12.97532965 289.85649503 -12.96941443 286.4392485 -12.95391631 283.02071047 C-12.94259983 279.33145723 -12.96006693 275.64232388 -12.97381592 271.95309448 C-12.99604982 264.72876933 -12.99124655 257.5047039 -12.97675271 250.28036857 C-12.96546103 244.40906884 -12.96392925 238.5378419 -12.9693718 232.66653442 C-12.97052104 231.4131137 -12.97052104 231.4131137 -12.97169351 230.13437134 C-12.97329213 228.43684091 -12.9749132 226.7393105 -12.97655647 225.04178011 C-12.99081441 209.12378125 -12.97442056 193.20592636 -12.94755463 177.28795111 C-12.92521579 163.62939531 -12.92909591 149.97105197 -12.95214844 136.3125 C-12.97890567 120.45149582 -12.98944111 104.59061783 -12.97408712 88.72959423 C-12.97249437 87.03830657 -12.97092252 85.3470189 -12.9693718 83.6557312 C-12.96860042 82.8235841 -12.96782904 81.991437 -12.96703429 81.13407332 C-12.96271705 75.2697815 -12.97000434 69.40556971 -12.98176956 63.54129028 C-12.99579227 56.39468649 -12.99199963 49.24835728 -12.96536584 42.10178494 C-12.95222431 38.45536642 -12.94708039 34.80940571 -12.9636116 31.16299057 C-12.98125782 27.21085913 -12.96018937 23.25947746 -12.93521118 19.30737305 C-12.94636479 18.15387643 -12.9575184 17.00037981 -12.96901 15.81192875 C-12.86264155 7.16268752 -12.86264155 7.16268752 -9.94811058 3.4644928 C-6.6000661 0.55199926 -4.28745258 0.03852383 0 0 Z " fill="#FFFFFF" transform="translate(448.30029296875,84.8388671875)"/>
<path d="M0 0 C1.41212311 -0.00576172 1.41212311 -0.00576172 2.85277396 -0.01163983 C4.4147536 -0.01034011 4.4147536 -0.01034011 6.00828838 -0.00901413 C7.10902854 -0.01198525 8.2097687 -0.01495637 9.34386462 -0.01801753 C13.05726469 -0.02673606 16.77063265 -0.02821543 20.48404217 -0.02970505 C23.13629085 -0.03433098 25.78853655 -0.03933446 28.4407835 -0.04475021 C35.66390924 -0.05834503 42.88702943 -0.06436009 50.11016583 -0.06876087 C54.61857328 -0.07152145 59.12697857 -0.07575847 63.63538456 -0.08026505 C76.1126778 -0.09245939 88.5899693 -0.10275826 101.06726837 -0.10614014 C102.26565885 -0.10646949 102.26565885 -0.10646949 103.48825924 -0.10680549 C104.2891217 -0.10702377 105.08998416 -0.10724204 105.91511518 -0.10746694 C107.53802574 -0.10791041 109.1609363 -0.10835697 110.78384686 -0.10880661 C111.58887029 -0.10902804 112.39389372 -0.10924947 113.2233118 -0.10947761 C126.26928302 -0.1134261 139.3151984 -0.13088094 152.36114804 -0.15416613 C165.74849464 -0.1778682 179.13581321 -0.19034147 192.52318114 -0.19150805 C200.04240565 -0.19242548 207.56155741 -0.19819469 215.08076191 -0.21632767 C221.48338268 -0.23171326 227.88590824 -0.23685829 234.28854398 -0.22858956 C237.55601483 -0.22467748 240.82325331 -0.22726512 244.09070873 -0.23964691 C247.63168007 -0.25228083 251.17215509 -0.24653591 254.71312237 -0.23606491 C255.74774996 -0.24412132 256.78237755 -0.25217772 257.8483575 -0.26047826 C266.6539348 -0.19934781 266.6539348 -0.19934781 270.55118084 3.13142776 C272.67291628 6.31403092 272.80819237 7.14568467 272.84170818 10.79890823 C272.85446789 11.74353928 272.86722759 12.68817032 272.88037395 13.66142654 C272.88371243 15.18958496 272.88371243 15.18958496 272.88711834 16.74861526 C272.89377514 17.79792221 272.90043194 18.84722916 272.90729046 19.92833328 C272.91742015 22.14917115 272.92210738 24.37003947 272.92178631 26.59090042 C272.92615511 29.98643148 272.96246052 33.38065839 273.00039959 36.77595901 C273.00626853 38.93350665 273.01023741 41.09106047 273.01211834 43.24861526 C273.02648937 44.26333908 273.0408604 45.2780629 273.05566692 46.32353592 C273.02778572 50.63234512 272.97257828 53.38130435 270.83487225 57.18660355 C265.36390378 61.84575843 259.73891209 61.41546101 252.88516521 61.38539505 C251.79819599 61.38851503 250.71122677 61.39163501 249.59131908 61.39484954 C245.94246814 61.40283837 242.29378308 61.39650234 238.64493084 61.39021683 C236.0316486 61.39292629 233.41836712 61.39648697 230.80508709 61.40083694 C224.43996064 61.40973197 218.07488134 61.40780845 211.70975304 61.40201166 C206.53685589 61.39749561 201.36397197 61.39688202 196.19107342 61.3990593 C195.08688588 61.39951899 195.08688588 61.39951899 193.96039152 61.39998798 C192.46498584 61.40062743 190.96958017 61.40127586 189.4741745 61.40193316 C175.45047509 61.40763678 161.42680182 61.40107807 147.40310669 61.39033243 C135.36911831 61.38139689 123.33516852 61.38294892 111.30118084 61.39216995 C97.32779333 61.40287203 83.35442874 61.40708745 69.38103771 61.40094543 C67.89112123 61.40030832 66.40120475 61.39967958 64.91128826 61.3990593 C64.17821343 61.39875074 63.4451386 61.39844219 62.68984938 61.39812429 C57.52293409 61.39639716 52.35603333 61.39931284 47.18912029 61.4040184 C40.2353985 61.410212 33.28175089 61.4058048 26.32803631 61.39422989 C23.77261762 61.39158042 21.21719281 61.39235326 18.66177654 61.39675522 C15.18016626 61.40220067 11.69879164 61.39538844 8.21719646 61.38539505 C7.20017902 61.38985649 6.18316158 61.39431794 5.13532543 61.39891458 C-0.69233244 61.36635369 -4.72485983 60.8559887 -9.72591877 57.68977737 C-12.54278198 53.50699296 -12.03882877 49.12556909 -12.01522541 44.19783401 C-12.02142399 43.12774597 -12.02762257 42.05765793 -12.03400898 40.95514297 C-12.04110955 38.69319442 -12.03792907 36.43119364 -12.02523518 34.16926956 C-12.01138236 30.70971209 -12.04542409 27.2528656 -12.08358479 23.79353714 C-12.0845361 21.59496877 -12.0826765 19.39639702 -12.07772541 17.19783401 C-12.09098362 16.16437347 -12.10424183 15.13091293 -12.1179018 14.06613541 C-12.02480727 6.87795821 -12.02480727 6.87795821 -9.03451252 3.00227737 C-5.66529508 0.56451765 -4.08275733 0.00623116 0 0 Z " fill="#FFFFFF" transform="translate(11.448819160461426,84.86857223510742)"/>
<path d="M0 0 C1.11232496 -0.00709439 2.22464992 -0.01418877 3.3706817 -0.02149814 C7.09963988 -0.03910673 10.82755975 -0.02095731 14.5565033 -0.00291443 C17.22907406 -0.00805212 19.9015749 -0.01514335 22.5741272 -0.02459717 C29.08024342 -0.04296988 35.58605918 -0.03446437 42.09216601 -0.01650894 C47.37947337 -0.00248064 52.66669918 0.00140938 57.95402336 -0.00195122 C58.70666506 -0.00242866 59.45930677 -0.0029061 60.2347558 -0.00339801 C61.76374195 -0.00442434 63.2927281 -0.0054797 64.82171421 -0.00656378 C78.33949048 -0.01512993 91.8571217 0.00154201 105.37486267 0.03126526 C118.49243765 0.06010822 131.60980374 0.06718341 144.72740173 0.05177307 C159.01248748 0.03501416 173.29747406 0.03097306 187.58256239 0.04848343 C189.10560348 0.05032782 190.62864459 0.05216255 192.15168571 0.0539875 C193.27573247 0.05535564 193.27573247 0.05535564 194.42248725 0.05675141 C199.70414081 0.06235831 204.98574598 0.05904826 210.26739693 0.05244255 C216.70291439 0.04471322 223.13822617 0.05144749 229.57370216 0.07661759 C232.85744195 0.08912159 236.14079549 0.09310333 239.42455673 0.08407593 C242.98300279 0.07541898 246.54050963 0.09127519 250.09887695 0.11352539 C251.13855796 0.10528462 252.17823897 0.09704386 253.24942547 0.08855337 C257.686946 0.13995565 260.25598071 0.18168731 264.10388851 2.53535557 C266.81953454 5.55513211 267.11759955 7.215977 267.17881775 11.18214417 C267.20291214 12.59920403 267.20291214 12.59920403 267.22749329 14.04489136 C267.27191928 18.36732802 267.31300699 22.68961076 267.33604431 27.01222229 C267.35260762 29.29259951 267.37990231 31.57292475 267.41807556 33.8530426 C267.47281447 37.13904279 267.49471422 40.42382575 267.50938416 43.71022034 C267.53205353 44.72808121 267.5547229 45.74594208 267.57807922 46.79464722 C267.55689063 53.88837028 267.55689063 53.88837028 264.57823181 57.74806213 C261.20766228 60.19266149 259.62670981 60.75345445 255.53992081 60.76241016 C254.5991221 60.76686801 253.65832339 60.77132585 252.68901563 60.77591878 C251.64837799 60.77573442 250.60774035 60.77555006 249.53556824 60.77536011 C248.43553365 60.7790368 247.33549905 60.78271348 246.20213008 60.78650159 C242.49106691 60.79757436 238.78003171 60.80138834 235.06895447 60.80519104 C232.41832816 60.81145294 229.76770488 60.81808638 227.11708069 60.82510376 C219.14451719 60.84487887 211.1719524 60.85493585 203.1993705 60.86383155 C199.44647331 60.86821287 195.69357753 60.8735801 191.94068146 60.87882042 C179.46768105 60.895834 166.99468153 60.91032854 154.5216713 60.91756916 C151.28385161 60.91947911 148.04603194 60.92139943 144.80821228 60.9233551 C143.6010706 60.92408071 143.6010706 60.92408071 142.36954221 60.92482098 C129.33069497 60.93312264 116.29193944 60.95846123 103.25313225 60.99093578 C89.87143126 61.02399305 76.48977689 61.04201673 63.10803485 61.0452134 C55.59266396 61.04737978 48.07742678 61.05614689 40.56209564 61.08167458 C34.16204753 61.10336346 27.76216559 61.11144102 21.3620849 61.10170779 C18.09644891 61.09715766 14.83122815 61.10126445 11.56562424 61.11846924 C8.02487764 61.13608238 4.48500584 61.12913322 0.94425964 61.11593628 C-0.08745511 61.12690553 -1.11916986 61.13787477 -2.18214869 61.14917642 C-8.09081353 61.09587529 -11.52102793 60.58625234 -16.01405334 56.62818909 C-17.21367703 54.22894172 -17.17278923 52.66257829 -17.22279358 49.98243713 C-17.25172951 48.53534615 -17.25172951 48.53534615 -17.28125 47.059021 C-17.33890864 42.64502114 -17.38826148 38.23118554 -17.41908264 33.81690979 C-17.44068136 31.48798308 -17.4748059 29.15913795 -17.5216217 26.83058167 C-17.58849085 23.47498783 -17.61606057 20.12107321 -17.63514709 16.76490784 C-17.66297775 15.72517319 -17.69080841 14.68543854 -17.71948242 13.61419678 C-17.71532066 12.15292107 -17.71532066 12.15292107 -17.71107483 10.66212463 C-17.72138229 9.80878036 -17.73168976 8.9554361 -17.74230957 8.07623291 C-16.85828237 5.10456272 -15.40483809 3.60870273 -12.99892873 1.69711059 C-8.95452052 -0.48093794 -4.48748515 -0.05119537 0 0 Z " fill="#FFFFFF" transform="translate(17.014053344726563,209.37181091308594)"/>
<path d="M0 0 C0.9483822 -0.00445784 1.8967644 -0.00891569 2.87388545 -0.01350862 C4.44753794 -0.01323207 4.44753794 -0.01323207 6.05298138 -0.01294994 C7.16188864 -0.01662663 8.2707959 -0.02030332 9.41330642 -0.02409142 C13.15434259 -0.03516434 16.89535103 -0.03897819 20.63640118 -0.04278088 C23.30835417 -0.04904273 25.98030416 -0.05567614 28.65225506 -0.0626936 C36.6885884 -0.08246809 44.72492302 -0.09252523 52.76127461 -0.10142139 C56.54368852 -0.10580246 60.32610103 -0.11116972 64.10851383 -0.11641026 C76.67845176 -0.13342313 89.24838881 -0.14791815 101.81833649 -0.155159 C105.0812591 -0.15706896 108.34418171 -0.15898928 111.6071043 -0.16094494 C112.8236113 -0.16167055 112.8236113 -0.16167055 114.06469419 -0.16241082 C127.20768104 -0.17071429 140.35057698 -0.19605626 153.49352411 -0.22852562 C166.98031141 -0.26157341 180.46705247 -0.27960567 193.95388049 -0.28280324 C201.52902277 -0.2849704 209.10403244 -0.29374909 216.67913532 -0.31926441 C223.12935066 -0.34094031 229.57940119 -0.34903725 236.02964882 -0.33929763 C239.32148827 -0.33474383 242.6129154 -0.33887017 245.90472317 -0.35605907 C249.47209243 -0.37364845 253.03859135 -0.36673497 256.60595989 -0.35352612 C257.64836938 -0.36449536 258.69077887 -0.37546461 259.76477653 -0.38676625 C264.21059097 -0.34686996 266.78296878 -0.31592887 270.63957024 2.03970528 C273.35224878 5.06130759 273.65160334 6.72229054 273.71281719 10.68817616 C273.73691158 12.10523602 273.73691158 12.10523602 273.76149273 13.55092335 C273.80591872 17.87336001 273.84700643 22.19564275 273.87004375 26.51825428 C273.88660706 28.7986315 273.91390175 31.07895674 273.952075 33.35907459 C274.00681391 36.64507478 274.02871367 39.92985774 274.0433836 43.21625233 C274.06605297 44.2341132 274.08872234 45.25197407 274.11207867 46.30067921 C274.10922863 47.25484226 274.10637859 48.20900532 274.10344219 49.19208241 C274.11152905 50.02766178 274.1196159 50.86324116 274.12794781 51.72414112 C273.17676373 55.49457408 271.61924998 56.78391739 268.5199461 59.13422108 C264.8540044 59.88480247 261.23674035 59.80867171 257.50552654 59.76913929 C256.38109978 59.77693924 255.25667302 59.7847392 254.09817272 59.79277551 C250.32233567 59.81275322 246.5475 59.7969071 242.77165508 59.78119373 C240.06806127 59.78521616 237.36451027 59.79668756 234.66093731 59.80774403 C228.07548852 59.82998347 221.49032457 59.82517247 214.9048646 59.81068082 C209.55363997 59.79939225 204.20249521 59.797856 198.85126209 59.8032999 C197.70917409 59.80444915 197.70917409 59.80444915 196.54401361 59.80562162 C194.99730918 59.80722023 193.45060477 59.80884129 191.90390039 59.81048457 C177.39899509 59.82474388 162.89424776 59.80834605 148.38936836 59.78148274 C135.93940699 59.75913925 123.48967867 59.76302753 111.03972149 59.78607655 C96.58544564 59.81282365 82.13130821 59.82337531 67.67701107 59.80801523 C66.13627885 59.80642246 64.5955466 59.80485061 63.05481434 59.8032999 C62.2967218 59.80252853 61.53862927 59.80175715 60.75756423 59.8009624 C55.41131532 59.79664244 50.06515412 59.80393818 44.7189188 59.81569767 C38.20573156 59.82970896 31.69284567 59.82595179 25.17969304 59.79929395 C21.85541427 59.78613706 18.53205534 59.78371681 15.20771503 59.79753971 C11.60709709 59.81113461 8.00790806 59.79415021 4.40738201 59.76913929 C2.82495879 59.7858697 2.82495879 59.7858697 1.21056741 59.8029381 C-5.8449221 59.70739045 -5.8449221 59.70739045 -9.12877274 56.74390697 C-10.5604922 53.97887317 -10.98572521 52.3321453 -10.99763203 49.23968983 C-11.01024067 48.29520985 -11.02284931 47.35072987 -11.03584003 46.37762928 C-11.02774311 45.36917957 -11.01964619 44.36072987 -11.0113039 43.32172108 C-11.01513081 42.27524403 -11.01895771 41.22876698 -11.02290058 40.1505785 C-11.02561828 37.9416657 -11.01826712 35.73272064 -11.00153828 33.52386951 C-10.98012767 30.14585989 -11.00134587 26.76997717 -11.0269289 23.39203358 C-11.0242856 21.24359139 -11.01916058 19.09515052 -11.0113039 16.94672108 C-11.01940083 15.93827137 -11.02749775 14.92982166 -11.03584003 13.89081287 C-10.97667696 9.45906412 -10.92626133 6.86221968 -8.57185078 3.02093983 C-5.56148695 0.30570971 -3.9553346 0.00859793 0 0 Z " fill="#FFFFFF" transform="translate(10.480053901672363,340.86577892303467)"/>
</svg>
